/vscmnt/brussel_pixiu_data/_data_brussel/112/vsc11236/PredSimResults/SUBJ04opt3D/expIG/worker_15.mot
version=1
nRows=8
nColumns=50
inDegrees=yes
endheader
                time	         pelvis_tilt	         pelvis_list	     pelvis_rotation	           pelvis_tx	           pelvis_ty	           pelvis_tz	       hip_flexion_r	     hip_adduction_r	      hip_rotation_r	        knee_angle_r	       ankle_angle_r	         mtp_angle_r	       hip_flexion_l	     hip_adduction_l	      hip_rotation_l	        knee_angle_l	       ankle_angle_l	         mtp_angle_l	    lumbar_extension	      lumbar_bending	     lumbar_rotation	 ercspn_r/activation	 intobl_r/activation	 extobl_r/activation	    abd_r/activation	    add_r/activation	hamstrings_r/activation	bifemsh_r/activation	glut_max_r/activation	iliopsoas_r/activation	rect_fem_r/activation	  vasti_r/activation	gastroc_r/activation	 soleus_r/activation	tib_ant_r/activation	 ercspn_l/activation	 intobl_l/activation	 extobl_l/activation	    abd_l/activation	    add_l/activation	hamstrings_l/activation	bifemsh_l/activation	glut_max_l/activation	iliopsoas_l/activation	rect_fem_l/activation	  vasti_l/activation	gastroc_l/activation	 soleus_l/activation	tib_ant_l/activation	
          1.12420456	         -6.14025558	          1.46807952	         -5.15293519	          2.24840912	          0.87480097	          0.00402313	        -16.19571612	         -0.47381251	         -3.71343084	        -14.25819128	         -3.87845243	         38.73616586	         36.83045873	          0.46008669	         -5.53654604	        -24.43901871	         10.95062287	          0.47422647	        -12.79160507	         -3.34254849	         13.33427958	          0.11424275	          0.00999999	          0.00999999	          0.01801322	          0.23548755	          0.05031713	          0.22304488	          0.01275936	          0.82039227	          0.01000000	          0.01685790	          0.20061853	          0.11540581	          0.00999999	          0.14460219	          0.08806843	          0.02279445	          0.00999999	          0.35895375	          0.44255133	          0.04622751	          0.00999999	          0.22399665	          0.01730992	          0.10197933	          0.01124911	          0.01124911	          0.52031129	
          1.13169926	         -6.10287916	          1.67630579	         -4.93941284	          2.26568177	          0.87202691	          0.00351062	        -15.95697893	         -0.82798753	         -4.12274497	        -16.76978860	         -4.36444969	         39.13522460	         36.42777847	          1.13122195	         -4.88441815	        -24.63656294	         10.54570531	          0.46528433	        -12.48313319	         -3.79460786	         13.37719080	          0.10155709	          0.00999999	          0.00999999	          0.01601301	          0.28326088	          0.04472991	          0.19827770	          0.01134255	          0.72929487	          0.00999999	          0.01498598	          0.17834160	          0.10259100	          0.00999999	          0.12854538	          0.07828920	          0.02026333	          0.00999999	          0.37220311	          0.39340986	          0.04109435	          0.01000000	          0.19912378	          0.01538781	          0.19003114	          0.00999999	          0.00999999	          0.50477158	
          1.13919395	         -6.05773923	          1.88548673	         -4.71550862	          2.28301888	          0.86911144	          0.00295867	        -15.49406752	         -1.20902925	         -4.52990684	        -19.69991611	         -4.88128392	         39.26180507	         36.00405534	          1.77750689	         -4.19378328	        -25.65761564	         10.17629943	          0.39866943	        -12.17399602	         -4.24005843	         13.37427441	          0.09028006	          0.01423491	          0.01000003	          0.01423491	          0.39840509	          0.08585983	          0.17626069	          0.01612232	          0.64831304	          0.00999999	          0.01332192	          0.15853832	          0.09119916	          0.00999999	          0.11427154	          0.06959587	          0.01801326	          0.01000000	          0.36742321	          0.34972513	          0.03653118	          0.01203039	          0.17701282	          0.01367912	          0.29356682	          0.01601302	          0.02279442	          0.50525524	
          1.14668865	         -6.01007310	          2.13712404	         -4.48911272	          2.30040499	          0.86614980	          0.00239239	        -14.81208174	         -1.66321253	         -4.94577108	        -22.99518930	         -5.50290705	         39.07128392	         35.40692664	          2.43995617	         -3.52045441	        -26.68118448	         10.31396374	          0.35476124	        -11.85989531	         -4.72746406	         13.32194343	          0.08025525	          0.01265425	          0.01124908	          0.01265425	          0.35416568	          0.07632585	          0.17348459	          0.01433208	          0.57632353	          0.00999999	          0.01184264	          0.14093402	          0.08107229	          0.00999999	          0.10158268	          0.07396271	          0.01601305	          0.11992533	          0.32662407	          0.31089121	          0.03247475	          0.04573966	          0.15735709	          0.01216018	          0.31737626	          0.01423492	          0.02026329	          0.59339324	
          1.15418335	         -5.96232630	          2.40806400	         -4.23871645	          2.31767254	          0.86329227	          0.00180572	        -13.89926277	         -2.16266490	         -5.37559570	        -26.63085379	         -6.26080953	         38.40527079	         34.69564379	          3.09397634	         -2.96287406	        -27.49429648	         10.31077691	          0.32579269	        -11.56673717	         -5.23117152	         13.20269554	          0.11242272	          0.01124911	          0.00999999	          0.01124911	          0.31483868	          0.06785053	          0.15422067	          0.01274063	          0.51232784	          0.00999999	          0.01052761	          0.12528453	          0.07206992	          0.05980937	          0.09030281	          0.06574979	          0.01423494	          0.21818930	          0.29035532	          0.27636945	          0.02886872	          0.13217286	          0.13988396	          0.01080990	          0.41093612	          0.01265425	          0.01801323	          0.60261838	
          1.16167804	         -5.91490576	          2.67798005	         -3.94371620	          2.33462086	          0.86069249	          0.00121102	        -12.74542762	         -2.68156496	         -5.81743984	        -30.60132575	         -7.06807844	         36.96915105	         34.02235530	          3.69060588	         -2.59516144	        -28.38036723	         10.47866430	          0.26429919	        -11.32505798	         -5.73009568	         12.99791790	          0.17297780	          0.00999999	          0.01000000	          0.00999999	          0.27987859	          0.06031633	          0.13709581	          0.01132589	          0.45543830	          0.00999999	          0.00999999	          0.11137278	          0.06406719	          0.13667596	          0.08027547	          0.05844885	          0.01265427	          0.30960471	          0.25811391	          0.24568104	          0.02566310	          0.11749623	          0.12435107	          0.00999999	          0.50190914	          0.01124911	          0.01601302	          0.53570287	
          1.16917274	         -5.86996076	          2.94947409	         -3.60641095	          2.35112219	          0.85849163	          0.00063463	        -11.35916784	         -3.21647527	         -6.23708364	        -34.85633042	         -7.85285682	         34.63731224	         33.43766821	          4.22642510	         -2.42649513	        -29.44467202	         11.06773979	          0.22653046	        -11.14960051	         -6.22804658	         12.70741111	          0.23899948	          0.00999999	          0.00999999	          0.01000001	          0.42575102	          0.05361873	          0.12187252	          0.01006825	          0.40486585	          0.00999999	          0.00999999	          0.09900580	          0.05695308	          0.27084466	          0.07136158	          0.05195862	          0.01124913	          0.36143578	          0.25486045	          0.21840030	          0.02281344	          0.10444930	          0.11054297	          0.00999999	          0.61367896	          0.01000000	          0.01423491	          0.47621774	
          1.17666744	         -5.82910342	          3.22229079	         -3.23733670	          2.36713992	          0.85680116	          0.00011397	         -9.78241316	         -3.73118623	         -6.56227500	        -39.28685939	         -8.38339062	         31.55831819	         32.87550776	          4.72913524	         -2.35062052	        -30.56131066	         12.07532620	          0.30936307	        -11.04278724	         -6.72516673	         12.34032358	          0.31204994	          0.04475411	          0.01000000	          0.01053900	          0.39115247	          0.04766484	          0.10833965	          0.01124910	          0.35990904	          0.05300416	          0.00999999	          0.08801207	          0.05062894	          0.24829413	          0.06343750	          0.04618907	          0.01000001	          0.39815823	          0.22656043	          0.19414885	          0.02028021	          0.09285111	          0.09826814	          0.00999999	          0.66367632	          0.00999999	          0.01265425	          0.42333792	
